<?xml version="1.0" standalone="no"?><!DOCTYPE svg PUBLIC "-//W3C//DTD SVG 1.1//EN" "http://www.w3.org/Graphics/SVG/1.1/DTD/svg11.dtd"><svg t="1522029821703" class="icon" style="" viewBox="0 0 1024 1024" version="1.1" xmlns="http://www.w3.org/2000/svg" p-id="1960" xmlns:xlink="http://www.w3.org/1999/xlink" width="128" height="128"><defs><style type="text/css"></style></defs><path d="M938.666667 1024l-149.333333 0c-23.466667 0-42.666667-19.2-42.666667-42.666667s19.2-42.666667 42.666667-42.666667l128 0c12.8 0 21.333333-8.533333 21.333333-21.333333L938.666667 106.666667c0-12.8-8.533333-21.333333-21.333333-21.333333L106.666667 85.333333C93.866667 85.333333 85.333333 93.866667 85.333333 106.666667l0 810.666667c0 12.8 8.533333 21.333333 21.333333 21.333333l341.333333 0c23.466667 0 42.666667 19.2 42.666667 42.666667s-19.2 42.666667-42.666667 42.666667L85.333333 1024c-46.933333 0-85.333333-38.4-85.333333-85.333333L0 85.333333c0-46.933333 38.4-85.333333 85.333333-85.333333l853.333333 0c46.933333 0 85.333333 38.4 85.333333 85.333333l0 853.333333C1024 985.6 985.6 1024 938.666667 1024zM413.866667 473.6l134.4 0 0-113.066667c0-132.266667 81.066667-204.8 198.4-204.8 55.466667 0 104.533333 4.266667 119.466667 6.4L866.133333 298.666667l-81.066667 0c-64 0-76.8 29.866667-76.8 74.666667l0 98.133333 153.6 0-19.2 153.6-132.266667 0L710.4 1024l-160 0L550.4 627.2l-134.4 0L416 473.6z" p-id="1961" fill="#ffffff"></path></svg>